<svg width="100" height="50" viewBox="0 0 100 50" fill="none" xmlns="http://www.w3.org/2000/svg">
<path d="M83.7685 20.286C83.1488 18.5208 81.4666 17.2537 79.4967 17.2537H79.4524C78.1686 17.2537 77.0121 17.7904 76.1876 18.6481C75.3632 17.7904 74.2067 17.2537 72.9229 17.2537H72.8842C71.7553 17.2537 70.7206 17.6687 69.9293 18.3493V18.0062C69.9016 17.6576 69.6194 17.3865 69.2653 17.3865H66.2329C65.8622 17.3865 65.5634 17.6853 65.5634 18.056V34.5126C65.5634 34.8833 65.8622 35.1821 66.2329 35.1821H69.2653C69.6028 35.1821 69.885 34.9276 69.9238 34.6067V22.7927C69.9238 22.7484 69.9238 22.7152 69.9293 22.6765C69.9791 22.1508 70.3664 21.7137 70.9751 21.6639H71.534C71.7885 21.686 72.0043 21.7745 72.1703 21.9129C72.436 22.1231 72.5798 22.4441 72.5798 22.7982L72.5909 34.5513C72.5909 34.9221 72.8897 35.2264 73.2604 35.2264H76.2928C76.6525 35.2264 76.9402 34.9442 76.9568 34.5901V22.7872C76.9568 22.3998 77.1339 22.0457 77.4493 21.8409C77.6042 21.7413 77.7924 21.6749 78.0082 21.6528H78.567C79.2255 21.7081 79.6184 22.2061 79.6184 22.7872L79.6295 34.5292C79.6295 34.8999 79.9283 35.1987 80.299 35.1987H83.3314C83.6855 35.1987 83.9788 34.9221 84.0009 34.5735V21.6971C83.9843 20.9722 83.8902 20.6346 83.7685 20.286ZM63.2504 17.4308H61.5184V14.6197C61.5184 14.6142 61.5184 14.6142 61.5184 14.6087C61.5184 14.2767 61.2473 14 60.9042 14C60.8655 14 60.8267 14.0055 60.788 14.0111C58.8679 14.5367 59.2497 17.1983 55.7415 17.4252H55.4039C55.3541 17.4252 55.3043 17.4308 55.2545 17.4418C54.9612 17.5138 54.7344 17.7794 54.7344 18.1003V21.1326C54.7344 21.5034 55.0332 21.8022 55.4039 21.8022H57.23L57.2244 34.6509C57.2244 35.0161 57.5232 35.3149 57.8885 35.3149H60.8876C61.2528 35.3149 61.5516 35.0161 61.5516 34.6509V21.8022H63.2504C63.6156 21.8022 63.9199 21.4979 63.9199 21.1326V18.1003C63.9199 17.7296 63.6211 17.4308 63.2504 17.4308Z" fill="#00BAF2"/>
<path d="M52.3494 17.4306H49.317C48.9518 17.4306 48.6475 17.7294 48.6475 18.1001V24.3696C48.642 24.7569 48.3265 25.0668 47.9392 25.0668H46.672C46.2792 25.0668 45.9582 24.7514 45.9582 24.3585L45.9472 18.1001C45.9472 17.7294 45.6483 17.4306 45.2776 17.4306H42.2453C41.8745 17.4306 41.5757 17.7294 41.5757 18.1001V24.9672C41.5757 27.5734 43.435 29.4382 46.0468 29.4382C46.0468 29.4382 48.0056 29.4382 48.0665 29.4493C48.4206 29.488 48.6918 29.7868 48.6918 30.152C48.6918 30.5117 48.4262 30.8105 48.072 30.8548C48.0554 30.8548 48.0388 30.8603 48.0222 30.8659L43.5899 30.8825C43.2192 30.8825 42.9203 31.1813 42.9203 31.552V34.5788C42.9203 34.9496 43.2192 35.2484 43.5899 35.2484H48.5424C51.1542 35.2484 53.0134 33.3891 53.0134 30.7829V18.1001C53.0189 17.7294 52.7201 17.4306 52.3494 17.4306ZM35.1071 17.4472H30.9016C30.5309 17.4472 30.2266 17.7294 30.2266 18.0725V19.2511C30.2266 19.2566 30.2266 19.2677 30.2266 19.2732C30.2266 19.2843 30.2266 19.2898 30.2266 19.3009V20.9167C30.2266 21.2819 30.5475 21.5862 30.9404 21.5862H34.9466C35.262 21.636 35.511 21.8684 35.5498 22.2281V22.621C35.5166 22.9641 35.2676 23.2131 34.9632 23.2407H32.9822C30.3428 23.2407 28.4669 24.9948 28.4669 27.4517V30.9765C28.4669 33.4223 30.0827 35.1598 32.7 35.1598H38.1948C39.1797 35.1598 39.9821 34.4128 39.9821 33.4943V21.9957C39.9821 19.2068 38.5434 17.4472 35.1071 17.4472ZM35.5885 30.0967V30.5726C35.5885 30.6113 35.583 30.65 35.5774 30.6832C35.5719 30.7164 35.5608 30.7496 35.5498 30.7829C35.4557 31.0485 35.1901 31.2421 34.8747 31.2421H33.613C33.2202 31.2421 32.8992 30.9433 32.8992 30.5726V30.0026C32.8992 29.9971 32.8992 29.986 32.8992 29.9805V28.4588V27.9829V27.9774C32.8992 27.6122 33.2202 27.3134 33.613 27.3134H34.8747C35.2676 27.3134 35.5885 27.6122 35.5885 27.9829V30.0967ZM23.2821 17.425H16.6585C16.2933 17.425 16 17.7239 16 18.0835V21.055C16 21.0605 16 21.0661 16 21.0716C16 21.0882 16 21.0993 16 21.1103V34.5511C16 34.9164 16.2711 35.2152 16.6142 35.2207H19.7019C20.0726 35.2207 20.3714 34.9219 20.3714 34.5511L20.3825 29.9473H23.2821C25.7057 29.9473 27.399 28.2651 27.399 25.8249V21.553C27.399 19.1183 25.7057 17.425 23.2821 17.425ZM23.0164 22.9807V24.851C23.0164 25.2438 22.701 25.5648 22.3082 25.5648H20.388V21.8186H22.3082C22.701 21.8186 23.0164 22.134 23.0164 22.5269V22.9807Z" fill="#20336B"/>
</svg>
